<svg width="15" height="14" viewBox="0 0 15 14" fill="none" xmlns="http://www.w3.org/2000/svg">
<path opacity="0.4" d="M11.106 13.8618H4.23718C2.2373 13.8618 0.609985 12.3586 0.609985 10.5104V6.81686C0.609985 4.96873 2.2373 3.46545 4.23718 3.46545H11.106C13.1058 3.46545 14.7332 4.96873 14.7332 6.81686V10.5104C14.7332 12.3586 13.1058 13.8618 11.106 13.8618Z" fill="#130F26"/>
<path d="M10.4627 5.54474C10.157 5.54474 9.90898 5.32041 9.90898 5.04401V3.01973C9.90898 1.90678 8.90793 1.00146 7.67802 1.00146C7.11179 1.00146 6.51751 1.20709 6.0945 1.58564C5.67075 1.96553 5.43599 2.47093 5.43377 3.01038V5.04401C5.43377 5.32041 5.18573 5.54474 4.8801 5.54474C4.57446 5.54474 4.32642 5.32041 4.32642 5.04401V3.01973C4.33011 2.1992 4.68151 1.4421 5.31492 0.875274C5.94759 0.307114 6.76556 0.0220321 7.68024 0C9.51845 0 11.0163 1.35464 11.0163 3.01973V5.04401C11.0163 5.32041 10.7683 5.54474 10.4627 5.54474Z" fill="#130F26"/>
</svg>
