<svg width="15" height="13" viewBox="0 0 15 13" fill="none" xmlns="http://www.w3.org/2000/svg">
<path d="M5.79982 8.30048C3.00072 8.30048 0.609985 8.7291 0.609985 10.4422C0.609985 12.1567 2.98552 12.6001 5.79982 12.6001C8.59891 12.6001 10.9896 12.1715 10.9896 10.4583C10.9896 8.74385 8.61411 8.30048 5.79982 8.30048Z" fill="#130F26"/>
<path opacity="0.4" d="M5.79981 6.66742C7.70618 6.66742 9.2339 5.18436 9.2339 3.33371C9.2339 1.48307 7.70618 0 5.79981 0C3.89413 0 2.36572 1.48307 2.36572 3.33371C2.36572 5.18436 3.89413 6.66742 5.79981 6.66742Z" fill="#130F26"/>
<path opacity="0.4" d="M10.6187 3.39417C10.6187 4.3366 10.3271 5.21597 9.81582 5.94644C9.76261 6.02156 9.8096 6.12285 9.90219 6.13895C10.0307 6.15974 10.1627 6.17248 10.2974 6.17517C11.6379 6.20938 12.8409 5.37159 13.1732 4.10988C13.6659 2.23777 12.2204 0.556824 10.379 0.556824C10.1793 0.556824 9.98787 0.576947 9.80131 0.613839C9.77574 0.619205 9.7481 0.631279 9.73428 0.652743C9.71632 0.680245 9.72945 0.715796 9.74741 0.739272C10.3009 1.49254 10.6187 2.40948 10.6187 3.39417Z" fill="#130F26"/>
<path d="M14.5771 8.51864C14.3318 8.01087 13.7396 7.66274 12.8386 7.4917C12.4137 7.39108 11.2625 7.24821 10.1922 7.26833C10.1763 7.27035 10.1673 7.28108 10.166 7.28779C10.1639 7.29852 10.1687 7.31462 10.1895 7.32602C10.6842 7.56347 12.5961 8.59645 12.3556 10.7751C12.3453 10.8704 12.4233 10.9508 12.5208 10.9374C12.9913 10.8724 14.2019 10.6195 14.5771 9.83335C14.7851 9.41747 14.7851 8.93452 14.5771 8.51864Z" fill="#130F26"/>
</svg>
